<svg height='100px' width='100px'  fill="#FFFFFF" xmlns="http://www.w3.org/2000/svg" xmlns:xlink="http://www.w3.org/1999/xlink" version="1.1" x="0px" y="0px" viewBox="0 0 100 100" enable-background="new 0 0 100 100" xml:space="preserve"><path d="M50.1,94.2C25.8,94.2,6,74.4,6,50.1S25.8,5.9,50.1,5.9s44.1,19.8,44.1,44.1S74.4,94.2,50.1,94.2z M50.1,8.9  C27.4,8.9,9,27.4,9,50.1s18.4,41.1,41.1,41.1s41.1-18.4,41.1-41.1S72.8,8.9,50.1,8.9z"></path><polygon points="20.7,73 18,71.6 31,46.3 38.4,49.2 51.7,29.3 61,40.1 72.9,41.6 83.5,71.8 80.6,72.8 70.7,44.3 59.5,42.9 52,34.2   39.6,52.9 32.5,50.1 "></polygon><path d="M82.4,73.9c-4.3,0-8.4-1.5-10.7-4c-2.4,2.4-6.4,4-10.7,4c-4.4,0-8.5-1.6-10.9-4.1c-2.4,2.5-6.4,4.1-10.9,4.1  c-4.4,0-8.5-1.5-10.8-4c-2.4,2.5-6.4,4-10.8,4c-1.5,0-3.1-0.2-4.5-0.6l0.7-2.9c1.2,0.3,2.5,0.5,3.8,0.5c4.1,0,7.8-1.6,9.4-4l0.4-0.7  l2.1,0l0.4,0.7c1.5,2.4,5.3,4,9.3,4c4.1,0,7.8-1.6,9.4-4l0.4-0.7l2.1,0l0.4,0.7c1.5,2.4,5.3,4,9.3,4c4.1,0,7.8-1.6,9.4-4l0.5-0.7  l1.9,0l0.4,0.7c1.5,2.4,5.3,4,9.3,4c1.4,0,2.8-0.2,4-0.5l0.8,2.9C85.7,73.6,84.1,73.9,82.4,73.9z"></path></svg>